<!-- osi icon by Free Icons (https://free-icons.github.io/free-icons/) and edited using https://yqnn.github.io/svg-path-editor/-->
<svg xmlns="http://www.w3.org/2000/svg" height="1em" fill="#ffffff" viewBox="0 0 512 512">
  <path
    d="M0 267.6Q4 163.4 64.8 96.6 125.5 29.8 216.5 16.7 287.4 8.6 347.1 32.9 405.8 58.2 446.2 106.8 485.7 156.3 497.8 220.1 512 312.2 469.5 387 427 462.9 344 497.3 330.9 503.4 325.8 490.2 298.5 419.4 272.2 349.6 267.1 337.5 279.3 332.4 316.7 316.2 322.8 275.7 326.8 245.4 308.6 220.1 288.4 195.8 258 192.8 227.7 190.7 205.4 207.9 184.2 225.1 179.1 253.5 175.1 278.8 187.2 300 198.3 320.3 221.6 331.4 235.8 336.4 229.7 350.6 202.4 421.4 175.1 492.3 171 502.4 159.9 498.3 119.4 483.2 84 452.8 49.6 422.5 27.3 377.9 10.1 344.5 6.1 317.2 1 290.9 0 274.7Z"/>
</svg>